<svg xmlns="http://www.w3.org/2000/svg"  viewBox="0 0 50 50" width="25px" height="25px"><path d="M 25 9 C 16.178 9 9 16.178 9 25 C 9 33.822 16.178 41 25 41 C 33.822 41 41 33.822 41 25 C 41 16.178 33.822 9 25 9 z M 25.021484 10.003906 C 33.291484 10.003906 40.021484 16.732906 40.021484 25.003906 C 40.021484 33.274906 33.292484 40.003906 25.021484 40.003906 C 16.750484 40.003906 10.021484 33.274906 10.021484 25.003906 C 10.021484 16.732906 16.750484 10.003906 25.021484 10.003906 z M 32.816406 20.642578 C 32.688406 20.642578 32.560391 20.689609 32.462891 20.787109 L 23.484375 29.765625 L 18.064453 24.347656 C 17.869453 24.152656 17.552422 24.152656 17.357422 24.347656 C 17.162422 24.542656 17.162422 24.859687 17.357422 25.054688 L 23.130859 30.826172 C 23.228859 30.923172 23.356375 30.972656 23.484375 30.972656 C 23.612375 30.972656 23.740891 30.922172 23.837891 30.826172 L 33.169922 21.494141 C 33.364922 21.299141 33.364922 20.982109 33.169922 20.787109 C 33.072422 20.689609 32.944406 20.642578 32.816406 20.642578 z"/></svg>